<svg width="18" height="20" viewBox="0 0 18 20" fill="none" xmlns="http://www.w3.org/2000/svg">
<path d="M14.3333 6.33333C14.3333 4.91885 13.7714 3.56229 12.7712 2.5621C11.771 1.5619 10.4145 1 9 1C7.58551 1 6.22896 1.5619 5.22876 2.5621C4.22857 3.56229 3.66667 4.91885 3.66667 6.33333C3.66667 12.5556 1 14.3333 1 14.3333H17C17 14.3333 14.3333 12.5556 14.3333 6.33333Z" stroke="url(#paint0_radial_547_565)" stroke-width="1.5" stroke-linecap="round" stroke-linejoin="round"/>
<path d="M10.5378 17.8889C10.3815 18.1583 10.1572 18.3819 9.88731 18.5374C9.61743 18.6928 9.31144 18.7747 9 18.7747C8.68855 18.7747 8.38257 18.6928 8.11268 18.5374C7.8428 18.3819 7.6185 18.1583 7.46222 17.8889" stroke="url(#paint1_radial_547_565)" stroke-width="1.5" stroke-linecap="round" stroke-linejoin="round"/>
<defs>
<radialGradient id="paint0_radial_547_565" cx="0" cy="0" r="1" gradientUnits="userSpaceOnUse" gradientTransform="translate(9 7.66667) rotate(90) scale(6.66667 8)">
<stop stop-color="#FA6393"/>
<stop offset="0.463542" stop-color="#FF4782"/>
<stop offset="1" stop-color="#E2386E"/>
</radialGradient>
<radialGradient id="paint1_radial_547_565" cx="0" cy="0" r="1" gradientUnits="userSpaceOnUse" gradientTransform="translate(9 18.3318) rotate(90) scale(0.442869 1.53778)">
<stop stop-color="#FA6393"/>
<stop offset="0.463542" stop-color="#FF4782"/>
<stop offset="1" stop-color="#E2386E"/>
</radialGradient>
</defs>
</svg>
