<svg width="20" height="21" viewBox="0 0 20 21" fill="none" xmlns="http://www.w3.org/2000/svg">
<path d="M15 7.08191C15 5.75583 14.4732 4.48406 13.5355 3.54638C12.5979 2.60869 11.3261 2.08191 10 2.08191C8.67392 2.08191 7.40215 2.60869 6.46447 3.54638C5.52678 4.48406 5 5.75583 5 7.08191C5 12.9152 2.5 14.5819 2.5 14.5819H17.5C17.5 14.5819 15 12.9152 15 7.08191Z" stroke="#F5B800" stroke-linecap="round" stroke-linejoin="round"/>
<path d="M11.4417 17.9153C11.2952 18.1678 11.0849 18.3775 10.8319 18.5232C10.5788 18.669 10.292 18.7457 10 18.7457C9.70802 18.7457 9.42116 18.669 9.16815 18.5232C8.91513 18.3775 8.70484 18.1678 8.55833 17.9153" stroke="#F5B800" stroke-linecap="round" stroke-linejoin="round"/>
</svg>
