<svg width="24" height="24" viewBox="0 0 24 24" fill="none" xmlns="http://www.w3.org/2000/svg">
<path d="M12 15.4153C13.6569 15.4153 15 14.0721 15 12.4153C15 10.7584 13.6569 9.41528 12 9.41528C10.3431 9.41528 9 10.7584 9 12.4153C9 14.0721 10.3431 15.4153 12 15.4153Z" stroke="#999999" stroke-linecap="round" stroke-linejoin="round"/>
<path d="M19.4 15.4153C19.2669 15.7169 19.2272 16.0515 19.286 16.3759C19.3448 16.7003 19.4995 16.9996 19.73 17.2353L19.79 17.2953C19.976 17.481 20.1235 17.7016 20.2241 17.9444C20.3248 18.1872 20.3766 18.4475 20.3766 18.7103C20.3766 18.9731 20.3248 19.2334 20.2241 19.4762C20.1235 19.719 19.976 19.9395 19.79 20.1253C19.6043 20.3112 19.3837 20.4588 19.1409 20.5594C18.8981 20.6601 18.6378 20.7119 18.375 20.7119C18.1122 20.7119 17.8519 20.6601 17.6091 20.5594C17.3663 20.4588 17.1457 20.3112 16.96 20.1253L16.9 20.0653C16.6643 19.8347 16.365 19.6801 16.0406 19.6213C15.7162 19.5625 15.3816 19.6022 15.08 19.7353C14.7842 19.862 14.532 20.0725 14.3543 20.3408C14.1766 20.6091 14.0813 20.9235 14.08 21.2453V21.4153C14.08 21.9457 13.8693 22.4544 13.4942 22.8295C13.1191 23.2046 12.6104 23.4153 12.08 23.4153C11.5496 23.4153 11.0409 23.2046 10.6658 22.8295C10.2907 22.4544 10.08 21.9457 10.08 21.4153V21.3253C10.0723 20.9943 9.96512 20.6733 9.77251 20.404C9.5799 20.1347 9.31074 19.9296 9 19.8153C8.69838 19.6822 8.36381 19.6425 8.03941 19.7013C7.71502 19.7601 7.41568 19.9147 7.18 20.1453L7.12 20.2053C6.93425 20.3912 6.71368 20.5388 6.47088 20.6394C6.22808 20.7401 5.96783 20.7919 5.705 20.7919C5.44217 20.7919 5.18192 20.7401 4.93912 20.6394C4.69632 20.5388 4.47575 20.3912 4.29 20.2053C4.10405 20.0195 3.95653 19.799 3.85588 19.5562C3.75523 19.3134 3.70343 19.0531 3.70343 18.7903C3.70343 18.5275 3.75523 18.2672 3.85588 18.0244C3.95653 17.7816 4.10405 17.561 4.29 17.3753L4.35 17.3153C4.58054 17.0796 4.73519 16.7803 4.794 16.4559C4.85282 16.1315 4.81312 15.7969 4.68 15.4953C4.55324 15.1995 4.34276 14.9473 4.07447 14.7696C3.80618 14.5919 3.49179 14.4966 3.17 14.4953H3C2.46957 14.4953 1.96086 14.2846 1.58579 13.9095C1.21071 13.5344 1 13.0257 1 12.4953C1 11.9649 1.21071 11.4561 1.58579 11.0811C1.96086 10.706 2.46957 10.4953 3 10.4953H3.09C3.42099 10.4875 3.742 10.3804 4.0113 10.1878C4.28059 9.99519 4.48572 9.72602 4.6 9.41528C4.73312 9.11367 4.77282 8.77909 4.714 8.45469C4.65519 8.1303 4.50054 7.83096 4.27 7.59528L4.21 7.53528C4.02405 7.34954 3.87653 7.12896 3.77588 6.88616C3.67523 6.64337 3.62343 6.38311 3.62343 6.12028C3.62343 5.85745 3.67523 5.5972 3.77588 5.3544C3.87653 5.11161 4.02405 4.89103 4.21 4.70528C4.39575 4.51933 4.61632 4.37181 4.85912 4.27116C5.10192 4.17052 5.36217 4.11871 5.625 4.11871C5.88783 4.11871 6.14808 4.17052 6.39088 4.27116C6.63368 4.37181 6.85425 4.51933 7.04 4.70528L7.1 4.76528C7.33568 4.99582 7.63502 5.15047 7.95941 5.20929C8.28381 5.26811 8.61838 5.2284 8.92 5.09528H9C9.29577 4.96852 9.54802 4.75804 9.72569 4.48975C9.90337 4.22146 9.99872 3.90707 10 3.58528V3.41528C10 2.88485 10.2107 2.37614 10.5858 2.00107C10.9609 1.626 11.4696 1.41528 12 1.41528C12.5304 1.41528 13.0391 1.626 13.4142 2.00107C13.7893 2.37614 14 2.88485 14 3.41528V3.50528C14.0013 3.82707 14.0966 4.14146 14.2743 4.40975C14.452 4.67804 14.7042 4.88852 15 5.01528C15.3016 5.1484 15.6362 5.18811 15.9606 5.12929C16.285 5.07047 16.5843 4.91582 16.82 4.68528L16.88 4.62528C17.0657 4.43933 17.2863 4.29181 17.5291 4.19116C17.7719 4.09052 18.0322 4.03871 18.295 4.03871C18.5578 4.03871 18.8181 4.09052 19.0609 4.19116C19.3037 4.29181 19.5243 4.43933 19.71 4.62528C19.896 4.81103 20.0435 5.03161 20.1441 5.2744C20.2448 5.5172 20.2966 5.77745 20.2966 6.04028C20.2966 6.30311 20.2448 6.56337 20.1441 6.80616C20.0435 7.04896 19.896 7.26954 19.71 7.45528L19.65 7.51528C19.4195 7.75096 19.2648 8.0503 19.206 8.37469C19.1472 8.69909 19.1869 9.03367 19.32 9.33528V9.41528C19.4468 9.71105 19.6572 9.9633 19.9255 10.141C20.1938 10.3187 20.5082 10.414 20.83 10.4153H21C21.5304 10.4153 22.0391 10.626 22.4142 11.0011C22.7893 11.3761 23 11.8849 23 12.4153C23 12.9457 22.7893 13.4544 22.4142 13.8295C22.0391 14.2046 21.5304 14.4153 21 14.4153H20.91C20.5882 14.4166 20.2738 14.5119 20.0055 14.6896C19.7372 14.8673 19.5268 15.1195 19.4 15.4153V15.4153Z" stroke="#999999" stroke-linecap="round" stroke-linejoin="round"/>
</svg>
