<svg width="16" height="14" viewBox="0 0 16 14" fill="none" xmlns="http://www.w3.org/2000/svg">
<path d="M16 1C16 0.447715 15.5523 0 15 0H1C0.447716 0 0 0.447715 0 1C0 1.55228 0.447716 2 1 2H15C15.5523 2 16 1.55228 16 1Z" fill="#8f8f8f"/>
<path d="M16 13C16 12.4477 15.5523 12 15 12H1C0.447716 12 0 12.4477 0 13C0 13.5523 0.447716 14 1 14H15C15.5523 14 16 13.5523 16 13Z" fill="#8f8f8f"/>
<path d="M15 6C15.5523 6 16 6.44771 16 7C16 7.55228 15.5523 8 15 8H7C6.44771 8 6 7.55228 6 7C6 6.44771 6.44772 6 7 6H15Z" fill="#8f8f8f"/>
</svg>
