<svg width="18" height="17" viewBox="0 0 18 17" fill="none" xmlns="http://www.w3.org/2000/svg">
<path d="M13.2068 8.92168C13.2002 7.70313 13.7514 6.7834 14.867 6.10605C14.2428 5.21289 13.2998 4.72148 12.0547 4.6252C10.876 4.53223 9.5877 5.3125 9.11621 5.3125C8.61816 5.3125 7.47598 4.6584 6.57949 4.6584C4.72676 4.68828 2.75781 6.13594 2.75781 9.08105C2.75781 9.95098 2.91719 10.8497 3.23594 11.7771C3.66094 12.9957 5.19492 15.984 6.79531 15.9342C7.63203 15.9143 8.22305 15.3398 9.31211 15.3398C10.368 15.3398 10.9158 15.9342 11.8488 15.9342C13.4625 15.9109 14.8504 13.1949 15.2555 11.973C13.0906 10.9537 13.2068 8.98477 13.2068 8.92168ZM11.3275 3.46973C12.234 2.39395 12.151 1.41445 12.1244 1.0625C11.3242 1.10898 10.3979 1.60703 9.86992 2.22129C9.28887 2.87871 8.94688 3.69219 9.01992 4.60859C9.88652 4.675 10.6768 4.23008 11.3275 3.46973Z" fill="#1F2937"/>
</svg>
