<svg width="18" height="17" viewBox="0 0 18 17" fill="none" xmlns="http://www.w3.org/2000/svg">
<g clip-path="url(#clip0_30_482)">
<path d="M17.1016 8.69258C17.1016 13.3908 13.8842 16.7344 9.13281 16.7344C4.57734 16.7344 0.898438 13.0555 0.898438 8.5C0.898438 3.94453 4.57734 0.265625 9.13281 0.265625C11.3508 0.265625 13.2168 1.0791 14.6545 2.42051L12.4133 4.57539C9.48144 1.74648 4.02949 3.87148 4.02949 8.5C4.02949 11.3721 6.32383 13.6996 9.13281 13.6996C12.3934 13.6996 13.6152 11.3621 13.8078 10.1502H9.13281V7.31797H16.9721C17.0484 7.73965 17.1016 8.14473 17.1016 8.69258Z" fill="#1F2937"/>
</g>
<defs>
<clipPath id="clip0_30_482">
<rect width="17" height="17" fill="white" transform="translate(0.5)"/>
</clipPath>
</defs>
</svg>
