<svg width="53" height="53" viewBox="0 0 53 53" fill="none" xmlns="http://www.w3.org/2000/svg">
<rect width="53" height="53" rx="15" fill="url(#paint0_linear_466_546)"/>
<g filter="url(#filter0_d_466_546)">
<path d="M25.9919 11L35.1894 20.0824C37.0083 21.8774 38.2473 24.1648 38.7496 26.6552C39.2519 29.1456 38.9949 31.7272 38.0112 34.0734C37.0276 36.4196 35.3613 38.425 33.2233 39.8359C31.0853 41.2469 28.5715 42 26 42C23.4285 42 20.9147 41.2469 18.7767 39.8359C16.6387 38.425 14.9724 36.4196 13.9888 34.0734C13.0051 31.7272 12.7481 29.1456 13.2504 26.6552C13.7527 24.1648 14.9917 21.8774 16.8106 20.0824L25.9919 11Z" fill="url(#paint1_linear_466_546)"/>
<path d="M25.9919 11L35.1894 20.0824C37.0083 21.8774 38.2473 24.1648 38.7496 26.6552C39.2519 29.1456 38.9949 31.7272 38.0112 34.0734C37.0276 36.4196 35.3613 38.425 33.2233 39.8359C31.0853 41.2469 28.5715 42 26 42C23.4285 42 20.9147 41.2469 18.7767 39.8359C16.6387 38.425 14.9724 36.4196 13.9888 34.0734C13.0051 31.7272 12.7481 29.1456 13.2504 26.6552C13.7527 24.1648 14.9917 21.8774 16.8106 20.0824L25.9919 11Z" stroke="white" stroke-width="1.5" stroke-linecap="round" stroke-linejoin="round"/>
</g>
<defs>
<linearGradient id="paint0_linear_466_546" x1="2.34514" y1="-2.46954e-06" x2="58.5294" y2="54.0021" gradientUnits="userSpaceOnUse">
<stop stop-color="#FF78A9"/>
<stop offset="1" stop-color="#DF1B49"/>
</linearGradient>
<linearGradient id="paint1_linear_466_546" x1="14.1504" y1="11" x2="46.2895" y2="36.9084" gradientUnits="userSpaceOnUse">
<stop stop-color="#FF78A9"/>
<stop offset="1" stop-color="#DF1B49"/>
</linearGradient>
</defs>
</svg>
