<svg width="414" height="318" viewBox="0 0 414 318" fill="none" xmlns="http://www.w3.org/2000/svg">
<path opacity="0.5" d="M32.0093 36V35.5H32.0094V35H37.0559V35.5H37.0559V36H32.0093ZM39.0745 36H44.1211V35.5H44.1212V35H39.0746V35.5H39.0745V36ZM46.1398 35.5V35H51.1864V35.5H51.1863V36H46.1398V35.5H46.1398ZM53.205 35.5V35H58.2516V35.5H58.2516V36H53.205V35.5H53.205ZM60.2702 35.5V35H65.3168V35.5H65.3168V36H60.2702V35.5H60.2702ZM67.3355 35.5V35H72.382V35.5H72.382V36H67.3354V35.5H67.3355ZM74.4007 35.5V35H79.4472L79.4472 35.5V36H74.4006V35.5H74.4007ZM81.4659 35.5V35H86.5125L86.5124 35.5V36H81.4659V35.5H81.4659ZM88.5311 35.5V35H93.5777L93.5777 35.5V36H88.5311V35.5H88.5311ZM95.5963 35.5L95.5963 35H100.643L100.643 35.5V36H95.5963V35.5ZM102.662 35.5L102.662 35H107.708L107.708 35.5V36H102.662V35.5ZM109.727 35.5L109.727 35H114.773L114.773 35.5V36H109.727V35.5ZM116.792 35.5L116.792 35H121.839L121.839 35.5V36H116.792V35.5ZM123.857 35.5L123.857 35H128.904L128.904 35.5V36H123.857V35.5ZM130.922 35.5L130.922 35H135.969L135.969 35.5V36H130.922V35.5ZM137.988 35.5L137.988 35H143.034L143.034 35.5V36H137.988V35.5ZM145.053 35.5L145.053 35H150.099L150.099 35.5V36H145.053V35.5ZM152.118 35.5L152.118 35H157.165L157.165 35.5V36H152.118V35.5ZM159.183 35.5L159.183 35H164.23L164.23 35.5V36H159.183V35.5ZM166.248 35.5L166.248 35H171.295L171.295 35.5V36H166.248V35.5ZM173.314 35.5L173.314 35H178.36L178.36 35.5V36H173.314V35.5ZM180.379 35.5L180.379 35H185.425L185.425 35.5V36H180.379V35.5ZM187.444 35.5V35H192.491L192.491 35.5V36H187.444V35.5ZM194.509 35.5L194.509 35H199.556V35.5V36H194.509V35.5ZM201.575 35.5L201.575 35H206.621L206.621 35.5V36H201.575V35.5ZM208.64 35.5L208.64 35H213.686L213.686 35.5V36H208.64V35.5ZM215.705 35.5L215.705 35H220.752L220.752 35.5V36H215.705V35.5ZM222.77 35.5L222.77 35H227.817L227.817 35.5V36H222.77V35.5ZM229.835 35.5L229.835 35H234.882L234.882 35.5V36H229.835V35.5ZM236.901 35.5L236.901 35H241.947L241.947 35.5V36H236.901V35.5ZM243.966 35.5L243.966 35H249.012L249.012 35.5V36H243.966V35.5ZM251.031 35.5V35H256.078L256.078 35.5V36H251.031V35.5ZM258.096 35.5V35H263.143L263.143 35.5V36H258.096V35.5ZM265.161 35.5V35H270.208L270.208 35.5V36H265.161V35.5ZM272.227 35.5V35H277.273L277.273 35.5V36H272.227V35.5ZM279.292 35.5L279.292 35H284.339L284.339 35.5V36H279.292V35.5ZM286.357 35.5L286.357 35H291.404L291.404 35.5V36H286.357V35.5ZM293.422 35.5V35H298.469L298.469 35.5V36H293.422V35.5ZM300.488 35.5V35H305.534L305.534 35.5V36H300.488V35.5ZM307.553 35.5L307.553 35H312.599L312.599 35.5V36H307.553V35.5ZM314.618 35.5L314.618 35H319.665L319.665 35.5V36H314.618V35.5ZM321.683 35.5L321.683 35H326.73L326.73 35.5V36H321.683V35.5ZM328.748 35.5L328.748 35H333.795L333.795 35.5V36H328.748V35.5ZM335.814 35.5L335.814 35H340.86L340.86 35.5V36H335.814V35.5ZM342.879 35.5L342.879 35H347.926L347.925 35.5V36H342.879V35.5ZM349.944 35.5L349.944 35H354.991L354.991 35.5V36H349.944V35.5Z" stroke="#FABB11" stroke-dasharray="2 5"/>
<path opacity="0.5" d="M48.211 60.3484C30.4117 68.3453 12.7819 80.8403 -2.13559 92.8355V317.818H418.945V9.86846C410.808 1.87163 398.942 0.538826 394.026 0.872027C363.513 2.87123 384.279 39.8808 344.216 42.885C311.576 45.3326 312.05 52.5177 307.826 58.5068C299.181 74.0007 293.53 72.3261 289.632 73.3433C260.644 73.3433 248.173 42.7554 226.204 46.354C204.234 49.9526 195.691 48.853 193.657 47.3536C186.876 43.5218 167.165 32.8025 150.43 36.8578C133.821 40.8825 121.904 78.2845 101.609 73.3433C59.3991 49.145 57.8735 56.8498 48.211 60.3484Z" fill="url(#paint0_linear_480_1221)"/>
<path d="M48.211 61.8121C30.4117 70.0056 12.7819 82.8079 -2.13559 95.0981V241.186H418.945V10.0908C410.808 1.89734 398.942 0.53176 394.026 0.873154C363.513 2.92152 384.279 40.8411 344.216 43.9192C311.576 46.427 312.05 53.7888 307.826 59.9252C299.181 75.8 293.53 74.0843 289.632 75.1265C260.644 75.1265 248.173 43.7865 226.204 47.4735C204.234 51.1606 195.691 50.034 193.657 48.4977C186.876 44.5717 167.165 33.5888 150.43 37.7438C133.821 41.8675 121.904 80.1892 101.609 75.1265C59.3991 50.3331 57.8735 58.2274 48.211 61.8121Z" fill="url(#paint1_linear_480_1221)"/>
<defs>
<linearGradient id="paint0_linear_480_1221" x1="208.966" y1="-10.1331" x2="209.234" y2="133.433" gradientUnits="userSpaceOnUse">
<stop stop-color="#FFBDBD"/>
<stop offset="1" stop-color="#FFBDBD" stop-opacity="0"/>
</linearGradient>
<linearGradient id="paint1_linear_480_1221" x1="208.966" y1="-10.4026" x2="209.414" y2="224.499" gradientUnits="userSpaceOnUse">
<stop stop-color="#FFBDBD"/>
<stop offset="1" stop-color="#E0EBFB" stop-opacity="0"/>
</linearGradient>
</defs>
</svg>
