<svg width="75" height="84" viewBox="0 0 75 84" fill="none" xmlns="http://www.w3.org/2000/svg">
<path fill-rule="evenodd" clip-rule="evenodd" d="M8.804 0.42804C8.613 0.16204 8.306 0 7.981 0C7.652 0 7.344 0.15804 7.154 0.42804C5.115 3.27604 0 10.762 0 14.295C0 18.702 3.573 22.273 7.978 22.273C12.389 22.273 15.959 18.703 15.959 14.295C15.962 10.762 10.843 3.27604 8.804 0.42804ZM4.523 17.51C4.385 17.68 4.187 17.762 3.988 17.762C3.832 17.762 3.671 17.705 3.54 17.596C1.561 15.927 2.241 13.4681 2.275 13.3651C2.379 12.9941 2.765 12.781 3.135 12.888C3.505 12.993 3.719 13.378 3.611 13.745C3.591 13.823 3.166 15.456 4.441 16.529C4.729 16.781 4.77 17.218 4.523 17.51Z" fill="#FA6393"/>
<path fill-rule="evenodd" clip-rule="evenodd" d="M26.8271 19.0371C26.2731 18.2521 25.3681 17.7831 24.4061 17.7831C23.4371 17.7831 22.5391 18.2441 21.9741 19.0371C15.9761 27.4041 0.945068 49.4201 0.945068 59.8011C0.945068 72.7581 11.4521 83.2501 24.3951 83.2501C37.3601 83.2501 47.8561 72.7581 47.8561 59.8011C47.8641 49.4201 32.8251 27.4041 26.8271 19.0371ZM14.2401 69.2521C13.8401 69.7381 13.2561 69.9811 12.6731 69.9811C12.2081 69.9811 11.7411 69.8211 11.3521 69.4991C5.54107 64.6031 7.54207 57.3721 7.63607 57.0611C7.94707 55.9731 9.07607 55.3481 10.1651 55.6591C11.2541 55.9731 11.8791 57.1021 11.5681 58.1841C11.5081 58.4201 10.2511 63.2171 13.9971 66.3681C14.8541 67.0991 14.9661 68.3901 14.2401 69.2521Z" fill="#FA6393"/>
<path fill-rule="evenodd" clip-rule="evenodd" d="M60.0371 3.15497C59.6661 2.62797 59.0571 2.30896 58.4131 2.30896C57.7581 2.30896 57.1511 2.61997 56.7771 3.15497C52.7401 8.78397 42.6221 23.601 42.6221 30.588C42.6221 39.303 49.6901 46.3669 58.4011 46.3669C67.1271 46.3669 74.1881 39.303 74.1881 30.588C74.1961 23.601 64.0781 8.78397 60.0371 3.15497ZM51.5691 36.9449C51.2991 37.2749 50.9061 37.4349 50.5131 37.4349C50.1991 37.4349 49.8841 37.33 49.6221 37.113C45.7121 33.816 47.0591 28.953 47.1231 28.744C47.3321 28.01 48.0921 27.5899 48.8251 27.7969C49.5581 28.0099 49.9771 28.77 49.7721 29.496C49.7301 29.656 48.8811 32.885 51.4031 35.004C51.9841 35.498 52.0591 36.3689 51.5691 36.9449Z" fill="#FA6393"/>
</svg>
